<svg xmlns="http://www.w3.org/2000/svg" xmlns:xlink="http://www.w3.org/1999/xlink" width="300" height="400" viewBox="0 0 300 400"><rect width="100%" height="100%" fill="#DDDDDD"/><path d="M64.26 200.28L67.78 200.28Q69.07 200.28 70.03 199.96Q71.00 199.63 71.63 199.03Q72.27 198.42 72.59 197.56Q72.90 196.69 72.90 195.62L72.90 195.62Q72.90 194.61 72.59 193.79Q72.27 192.96 71.64 192.39Q71.01 191.81 70.05 191.50Q69.09 191.20 67.78 191.20L67.78 191.20L64.26 191.20L64.26 200.28ZM59.55 187.56L67.78 187.56Q70.31 187.56 72.17 188.15Q74.02 188.75 75.23 189.81Q76.44 190.88 77.02 192.37Q77.61 193.86 77.61 195.62L77.61 195.62Q77.61 197.46 77.00 198.99Q76.39 200.52 75.16 201.63Q73.94 202.73 72.09 203.34Q70.24 203.95 67.78 203.95L67.78 203.95L64.26 203.95L64.26 212.86L59.55 212.86L59.55 187.56ZM80.59 186.86L84.91 186.86L84.91 212.86L80.59 212.86L80.59 186.86ZM98.72 208.22L98.72 205.20Q96.84 205.28 95.57 205.52Q94.29 205.76 93.52 206.12Q92.75 206.49 92.42 206.98Q92.08 207.47 92.08 208.05L92.08 208.05Q92.08 209.19 92.76 209.68Q93.43 210.17 94.52 210.17L94.52 210.17Q95.85 210.17 96.82 209.69Q97.79 209.20 98.72 208.22L98.72 208.22ZM89.58 198.79L88.81 197.41Q91.91 194.57 96.27 194.57L96.27 194.57Q97.84 194.57 99.08 195.09Q100.33 195.61 101.18 196.53Q102.04 197.44 102.49 198.72Q102.93 200.00 102.93 201.52L102.93 201.52L102.93 212.86L100.97 212.86Q100.36 212.86 100.03 212.68Q99.70 212.49 99.50 211.93L99.50 211.93L99.12 210.64Q98.44 211.25 97.79 211.72Q97.14 212.18 96.44 212.49Q95.74 212.81 94.94 212.98Q94.15 213.14 93.19 213.14L93.19 213.14Q92.05 213.14 91.09 212.84Q90.12 212.53 89.42 211.92Q88.72 211.30 88.34 210.39Q87.95 209.48 87.95 208.28L87.95 208.28Q87.95 207.59 88.18 206.92Q88.41 206.25 88.92 205.63Q89.44 205.02 90.26 204.48Q91.09 203.94 92.28 203.53Q93.48 203.13 95.08 202.88Q96.67 202.62 98.72 202.57L98.72 202.57L98.72 201.52Q98.72 199.72 97.95 198.85Q97.18 197.99 95.72 197.99L95.72 197.99Q94.67 197.99 93.98 198.23Q93.29 198.48 92.77 198.78Q92.24 199.09 91.81 199.33Q91.38 199.58 90.86 199.58L90.86 199.58Q90.40 199.58 90.09 199.34Q89.77 199.11 89.58 198.79L89.58 198.79ZM120.99 197.13L119.86 198.70Q119.66 198.95 119.48 199.09Q119.30 199.23 118.95 199.23L118.95 199.23Q118.61 199.23 118.30 199.03Q117.98 198.83 117.55 198.57Q117.11 198.32 116.50 198.12Q115.90 197.92 115.01 197.92L115.01 197.92Q113.87 197.92 113.01 198.33Q112.16 198.74 111.59 199.51Q111.02 200.28 110.74 201.37Q110.46 202.47 110.46 203.85L110.46 203.85Q110.46 205.28 110.76 206.40Q111.07 207.52 111.65 208.29Q112.23 209.05 113.05 209.44Q113.87 209.83 114.90 209.83L114.90 209.83Q115.94 209.83 116.57 209.58Q117.21 209.33 117.65 209.02Q118.09 208.71 118.41 208.46Q118.74 208.21 119.14 208.21L119.14 208.21Q119.66 208.21 119.93 208.61L119.93 208.61L121.17 210.18Q120.45 211.02 119.61 211.59Q118.77 212.16 117.87 212.50Q116.97 212.84 116.01 212.98Q115.06 213.12 114.12 213.12L114.12 213.12Q112.45 213.12 110.98 212.50Q109.51 211.88 108.41 210.69Q107.31 209.50 106.67 207.78Q106.03 206.05 106.03 203.85L106.03 203.85Q106.03 201.87 106.60 200.18Q107.17 198.49 108.27 197.26Q109.37 196.03 111.00 195.33Q112.63 194.63 114.75 194.63L114.75 194.63Q116.76 194.63 118.27 195.27Q119.79 195.92 120.99 197.13L120.99 197.13ZM127.28 201.82L135.43 201.82Q135.43 200.98 135.19 200.24Q134.96 199.49 134.49 198.93Q134.01 198.37 133.29 198.05Q132.56 197.72 131.60 197.72L131.60 197.72Q129.73 197.72 128.65 198.79Q127.57 199.86 127.28 201.82L127.28 201.82ZM138.30 204.43L127.19 204.43Q127.29 205.81 127.68 206.82Q128.06 207.82 128.69 208.48Q129.32 209.13 130.19 209.46Q131.06 209.78 132.11 209.78L132.11 209.78Q133.16 209.78 133.92 209.54Q134.68 209.29 135.25 208.99Q135.82 208.70 136.25 208.45Q136.67 208.21 137.08 208.21L137.08 208.21Q137.62 208.21 137.88 208.61L137.88 208.61L139.12 210.18Q138.41 211.02 137.51 211.59Q136.62 212.16 135.65 212.50Q134.68 212.84 133.67 212.98Q132.67 213.12 131.72 213.12L131.72 213.12Q129.85 213.12 128.24 212.50Q126.63 211.88 125.44 210.67Q124.25 209.45 123.57 207.66Q122.88 205.86 122.88 203.50L122.88 203.50Q122.88 201.66 123.48 200.04Q124.07 198.42 125.18 197.23Q126.30 196.03 127.90 195.33Q129.50 194.63 131.51 194.63L131.51 194.63Q133.21 194.63 134.64 195.17Q136.08 195.71 137.11 196.75Q138.14 197.79 138.73 199.31Q139.32 200.82 139.32 202.76L139.32 202.76Q139.32 203.74 139.11 204.09Q138.90 204.43 138.30 204.43L138.30 204.43ZM146.88 186.86L146.88 196.83Q147.93 195.85 149.19 195.24Q150.45 194.63 152.14 194.63L152.14 194.63Q153.61 194.63 154.75 195.13Q155.89 195.62 156.65 196.53Q157.41 197.43 157.80 198.68Q158.20 199.93 158.20 201.43L158.20 201.43L158.20 212.86L153.88 212.86L153.88 201.43Q153.88 199.79 153.12 198.89Q152.37 197.99 150.83 197.99L150.83 197.99Q149.71 197.99 148.73 198.49Q147.75 199.00 146.88 199.88L146.88 199.88L146.88 212.86L142.55 212.86L142.55 186.86L146.88 186.86ZM170.24 194.63L170.24 194.63Q172.23 194.63 173.87 195.27Q175.51 195.92 176.67 197.11Q177.83 198.30 178.46 200.02Q179.09 201.73 179.09 203.85L179.09 203.85Q179.09 205.98 178.46 207.70Q177.83 209.41 176.67 210.62Q175.51 211.83 173.87 212.48Q172.23 213.12 170.24 213.12L170.24 213.12Q168.23 213.12 166.58 212.48Q164.94 211.83 163.77 210.62Q162.61 209.41 161.97 207.70Q161.33 205.98 161.33 203.85L161.33 203.85Q161.33 201.73 161.97 200.02Q162.61 198.30 163.77 197.11Q164.94 195.92 166.58 195.27Q168.23 194.63 170.24 194.63ZM170.24 209.80L170.24 209.80Q172.48 209.80 173.56 208.29Q174.63 206.79 174.63 203.88L174.63 203.88Q174.63 200.98 173.56 199.46Q172.48 197.93 170.24 197.93L170.24 197.93Q167.96 197.93 166.87 199.47Q165.78 201.00 165.78 203.88L165.78 203.88Q165.78 206.77 166.87 208.29Q167.96 209.80 170.24 209.80ZM182.45 186.86L186.78 186.86L186.78 212.86L182.45 212.86L182.45 186.86ZM202.37 207.54L202.37 199.49Q201.63 198.60 200.77 198.23Q199.90 197.86 198.90 197.86L198.90 197.86Q197.92 197.86 197.14 198.23Q196.35 198.60 195.79 199.34Q195.23 200.09 194.93 201.23Q194.63 202.38 194.63 203.94L194.63 203.94Q194.63 205.51 194.89 206.61Q195.14 207.70 195.61 208.39Q196.09 209.08 196.77 209.39Q197.45 209.69 198.29 209.69L198.29 209.69Q199.64 209.69 200.58 209.13Q201.53 208.57 202.37 207.54L202.37 207.54ZM202.37 186.86L206.69 186.86L206.69 212.86L204.05 212.86Q203.19 212.86 202.96 212.07L202.96 212.07L202.60 210.34Q201.51 211.58 200.10 212.35Q198.69 213.12 196.82 213.12L196.82 213.12Q195.35 213.12 194.13 212.51Q192.90 211.90 192.02 210.74Q191.13 209.57 190.65 207.86Q190.17 206.14 190.17 203.94L190.17 203.94Q190.17 201.94 190.71 200.23Q191.26 198.51 192.27 197.25Q193.29 195.99 194.70 195.28Q196.12 194.57 197.89 194.57L197.89 194.57Q199.39 194.57 200.46 195.05Q201.53 195.52 202.37 196.32L202.37 196.32L202.37 186.86ZM214.37 201.82L222.53 201.82Q222.53 200.98 222.29 200.24Q222.06 199.49 221.58 198.93Q221.11 198.37 220.39 198.05Q219.66 197.72 218.70 197.72L218.70 197.72Q216.82 197.72 215.75 198.79Q214.67 199.86 214.37 201.82L214.37 201.82ZM225.40 204.43L214.29 204.43Q214.39 205.81 214.78 206.82Q215.16 207.82 215.79 208.48Q216.42 209.13 217.29 209.46Q218.15 209.78 219.20 209.78L219.20 209.78Q220.25 209.78 221.02 209.54Q221.78 209.29 222.35 208.99Q222.91 208.70 223.34 208.45Q223.77 208.21 224.17 208.21L224.17 208.21Q224.72 208.21 224.98 208.61L224.98 208.61L226.22 210.18Q225.50 211.02 224.61 211.59Q223.72 212.16 222.75 212.50Q221.78 212.84 220.77 212.98Q219.76 213.12 218.82 213.12L218.82 213.12Q216.95 213.12 215.34 212.50Q213.73 211.88 212.54 210.67Q211.35 209.45 210.66 207.66Q209.98 205.86 209.98 203.50L209.98 203.50Q209.98 201.66 210.58 200.04Q211.17 198.42 212.28 197.23Q213.39 196.03 215.00 195.33Q216.60 194.63 218.61 194.63L218.61 194.63Q220.31 194.63 221.74 195.17Q223.18 195.71 224.21 196.75Q225.24 197.79 225.83 199.31Q226.41 200.82 226.41 202.76L226.41 202.76Q226.41 203.74 226.20 204.09Q225.99 204.43 225.40 204.43L225.40 204.43ZM233.47 195.99L233.73 198.02Q234.57 196.41 235.72 195.49Q236.88 194.57 238.45 194.57L238.45 194.57Q239.70 194.57 240.45 195.12L240.45 195.12L240.17 198.35Q240.08 198.67 239.92 198.80Q239.75 198.93 239.47 198.93L239.47 198.93Q239.21 198.93 238.69 198.84Q238.17 198.76 237.68 198.76L237.68 198.76Q236.97 198.76 236.41 198.97Q235.85 199.18 235.40 199.57Q234.95 199.96 234.61 200.52Q234.27 201.08 233.97 201.80L233.97 201.80L233.97 212.86L229.65 212.86L229.65 194.91L232.19 194.91Q232.85 194.91 233.12 195.14Q233.38 195.38 233.47 195.99L233.47 195.99Z" fill="#999999"/></svg>